<?xml version="1.0" standalone="no"?>
<!DOCTYPE svg PUBLIC "-//W3C//DTD SVG 20010904//EN"
 "http://www.w3.org/TR/2001/REC-SVG-20010904/DTD/svg10.dtd">
<svg version="1.0" xmlns="http://www.w3.org/2000/svg"
 width="500.000000pt" height="500.000000pt" viewBox="0 0 500.000000 500.000000"
 preserveAspectRatio="xMidYMid meet">
<metadata>
Created by potrace 1.14, written by Peter Selinger 2001-2017
</metadata>
<g transform="translate(0.000000,500.000000) scale(0.100000,-0.100000)"
fill="#000000" stroke="none">
<path d="M2472 4228 c-63 -224 -233 -596 -400 -876 -18 -29 -32 -57 -32 -62 0
-4 -4 -10 -8 -12 -4 -1 -34 -46 -66 -98 -33 -52 -78 -124 -101 -160 -81 -126
-195 -309 -195 -314 0 -3 -14 -25 -30 -49 -102 -152 -238 -474 -255 -607 -4
-30 -9 -64 -11 -75 -6 -27 -6 -304 0 -313 2 -4 7 -31 11 -61 10 -76 58 -221
106 -316 109 -216 296 -397 515 -500 114 -54 160 -70 276 -93 408 -84 840 75
1101 403 26 33 52 65 57 72 6 7 10 16 10 21 0 5 6 14 13 20 42 35 128 259 153
396 13 73 21 346 11 364 -3 4 -7 30 -11 57 -7 63 -29 148 -63 245 -28 77 -148
321 -183 370 -11 16 -20 33 -20 39 0 6 -4 11 -10 11 -5 0 -10 5 -10 11 0 6
-13 31 -30 56 -16 24 -30 46 -30 49 0 3 -22 38 -50 79 -27 41 -50 77 -50 80 0
3 -5 11 -10 18 -18 20 -102 155 -200 317 -112 187 -241 435 -305 585 -25 61
-50 119 -55 130 -19 45 -20 50 -62 187 -18 59 -35 108 -38 108 -3 0 -16 -37
-28 -82z m-477 -1515 c-65 -137 -132 -287 -140 -313 -4 -14 -11 -29 -15 -35
-22 -29 -94 -285 -106 -375 -11 -84 -12 -231 -2 -306 12 -87 59 -223 103 -297
19 -32 35 -63 35 -68 0 -5 4 -9 8 -9 4 0 16 -14 26 -31 27 -46 143 -158 218
-212 80 -57 192 -110 271 -128 60 -14 76 -29 30 -29 -51 0 -227 50 -300 84
-235 112 -402 306 -483 561 -28 87 -40 348 -21 446 32 160 109 329 261 574 51
83 104 170 118 194 40 70 37 30 -3 -56z"/>
</g>
</svg>
